<svg width="169" height="32" viewBox="0 0 169 32" fill="none" xmlns="http://www.w3.org/2000/svg">
<path d="M16.9366 30.2956C15.8018 30.7785 14.5819 31.1904 13.2769 31.5313C12.0003 31.8438 10.7378 32 9.48959 32C8.58176 32 7.71649 31.8864 6.89378 31.6591C6.07107 31.4319 5.34764 31.0626 4.72352 30.5513C4.12776 30.0399 3.64548 29.3724 3.27667 28.5486C2.93624 27.7248 2.76602 26.7022 2.76602 25.4807V15.2117H0V9.11851H2.76602V2.08788H10.8513V9.11851H15.2344V15.2117H10.8513V22.6258C10.8513 23.3644 11.0074 23.8899 11.3194 24.2024C11.6315 24.4865 12.057 24.6285 12.596 24.6285C12.9932 24.6285 13.4471 24.5717 13.9578 24.4581C14.4684 24.316 14.9791 24.1314 15.4897 23.9041L16.9366 30.2956Z" fill="white"/>
<path d="M19.2282 31.5313V9.11851H27.3135V31.5313H19.2282ZM19.2282 7.24367V0.426098H27.3135V7.24367H19.2282Z" fill="white"/>
<path d="M67.4903 31.5313H59.405V18.9188C59.405 17.8109 59.178 17.0155 58.7241 16.5326C58.2986 16.0213 57.7737 15.7656 57.1496 15.7656C56.4971 15.7656 55.8021 16.0639 55.0645 16.6605C54.3552 17.257 53.8304 18.024 53.49 18.9614V31.5313H45.4047V18.9188C45.4047 17.8109 45.1777 17.0155 44.7238 16.5326C44.2983 16.0213 43.7734 15.7656 43.1493 15.7656C42.4968 15.7656 41.8017 16.0639 41.0641 16.6605C40.3549 17.257 39.8301 18.024 39.4896 18.9614V31.5313H31.4043V9.11851H38.6811V12.4421C39.4754 11.2206 40.5677 10.2974 41.9578 9.67244C43.3479 9.01909 44.9933 8.69241 46.8941 8.69241C47.8019 8.69241 48.5962 8.80604 49.2771 9.03329C49.958 9.23213 50.5395 9.5162 51.0218 9.88549C51.5325 10.2548 51.9296 10.6667 52.2133 11.1212C52.5254 11.5757 52.7665 12.0586 52.9368 12.5699C53.7311 11.3484 54.8091 10.3968 56.1709 9.71505C57.561 9.03329 59.1355 8.69241 60.8944 8.69241C62.3696 8.69241 63.5327 8.97648 64.3838 9.54461C65.2633 10.0843 65.93 10.7661 66.3839 11.5899C66.8378 12.4137 67.1357 13.2943 67.2775 14.2317C67.4194 15.1691 67.4903 16.0213 67.4903 16.7883V31.5313Z" fill="white"/>
<path d="M70.1094 16.1491C70.1094 14.3027 70.4498 12.4847 71.1307 10.6951C71.8399 8.90546 72.8612 7.30049 74.1946 5.88016C75.5279 4.45983 77.145 3.30936 79.0457 2.42876C80.9465 1.54816 83.1168 1.10785 85.5565 1.10785C88.4786 1.10785 91.0035 1.7186 93.1312 2.94008C95.2873 4.13316 96.8901 5.72392 97.9398 7.71238L91.5992 12.229C91.3155 11.4905 90.9326 10.8797 90.4503 10.3968C89.9964 9.91389 89.4857 9.5304 88.9183 9.24634C88.3509 8.96227 87.7552 8.76342 87.131 8.6498C86.5353 8.53617 85.9537 8.47936 85.3863 8.47936C84.1948 8.47936 83.1593 8.72082 82.2799 9.20373C81.4288 9.65823 80.7195 10.269 80.1522 11.036C79.6131 11.7745 79.2018 12.6267 78.9181 13.5925C78.6628 14.53 78.5351 15.4674 78.5351 16.4048C78.5351 17.4558 78.6911 18.4643 79.0032 19.4301C79.3153 20.3959 79.7692 21.2481 80.3649 21.9867C80.9607 22.7253 81.6841 23.3218 82.5352 23.7763C83.4146 24.2024 84.3934 24.4154 85.4714 24.4154C86.0388 24.4154 86.6204 24.3586 87.2162 24.245C87.8119 24.103 88.3793 23.8899 88.9183 23.6059C89.4857 23.2934 89.9822 22.9099 90.4077 22.4554C90.8616 21.9725 91.2162 21.3901 91.4716 20.7084L98.2377 24.7563C97.7838 25.8642 97.0887 26.8584 96.1525 27.739C95.2447 28.6196 94.195 29.3582 93.0035 29.9547C91.8404 30.5513 90.5779 31.0058 89.2162 31.3182C87.8828 31.6307 86.5778 31.7869 85.3012 31.7869C83.06 31.7869 81.0032 31.3466 79.1309 30.466C77.2868 29.557 75.684 28.364 74.3222 26.8868C72.9889 25.4097 71.9534 23.7337 71.2158 21.8589C70.4782 19.984 70.1094 18.0808 70.1094 16.1491Z" fill="white"/>
<path d="M111.452 31.9574C109.438 31.9574 107.664 31.6449 106.132 31.02C104.629 30.3666 103.352 29.5144 102.303 28.4634C101.281 27.3839 100.501 26.1482 99.9621 24.7563C99.4515 23.336 99.1962 21.8589 99.1962 20.3249C99.1962 18.7909 99.4515 17.328 99.9621 15.9361C100.501 14.5158 101.281 13.2801 102.303 12.229C103.352 11.1496 104.629 10.2974 106.132 9.67244C107.664 9.01909 109.438 8.69241 111.452 8.69241C113.438 8.69241 115.197 9.01909 116.728 9.67244C118.26 10.2974 119.537 11.1496 120.558 12.229C121.608 13.2801 122.388 14.5158 122.899 15.9361C123.438 17.328 123.707 18.7909 123.707 20.3249C123.707 21.8589 123.438 23.336 122.899 24.7563C122.388 26.1482 121.608 27.3839 120.558 28.4634C119.537 29.5144 118.26 30.3666 116.728 31.02C115.197 31.6449 113.438 31.9574 111.452 31.9574ZM107.494 20.3249C107.494 21.8304 107.863 23.0093 108.601 23.8615C109.338 24.7137 110.289 25.1398 111.452 25.1398C112.615 25.1398 113.565 24.7137 114.303 23.8615C115.04 23.0093 115.409 21.8304 115.409 20.3249C115.409 18.8194 115.04 17.6405 114.303 16.7883C113.565 15.9361 112.615 15.51 111.452 15.51C110.289 15.51 109.338 15.9361 108.601 16.7883C107.863 17.6405 107.494 18.8194 107.494 20.3249Z" fill="white"/>
<path d="M149.081 31.5313H140.995V18.9188C140.995 17.8109 140.74 17.0155 140.229 16.5326C139.747 16.0213 139.18 15.7656 138.527 15.7656C137.846 15.7656 137.123 16.0639 136.357 16.6605C135.591 17.257 135.024 18.024 134.655 18.9614V31.5313H126.569V9.11851H133.846V12.4421C134.641 11.2206 135.747 10.2974 137.165 9.67244C138.612 9.01909 140.314 8.69241 142.272 8.69241C143.804 8.69241 145.01 8.97648 145.889 9.54461C146.797 10.0843 147.478 10.7661 147.932 11.5899C148.414 12.4137 148.726 13.2943 148.868 14.2317C149.01 15.1691 149.081 16.0213 149.081 16.7883V31.5313Z" fill="white"/>
<path d="M154.574 31.5313V17.8109H151.808V11.7177H154.574V9.28895C154.574 7.89703 154.773 6.63293 155.17 5.49667C155.567 4.332 156.12 3.35197 156.829 2.55659C157.539 1.7328 158.39 1.10785 159.383 0.681756C160.404 0.227252 161.539 0 162.787 0C164.659 0 166.73 0.426098 169 1.27829L167.638 7.41411C167.156 7.24367 166.631 7.10164 166.064 6.98801C165.525 6.87439 165.042 6.81757 164.617 6.81757C163.312 6.81757 162.659 7.54194 162.659 8.99068V11.7177H167.553V17.8109H162.659V31.5313H154.574Z" fill="white"/>
</svg>
