<svg width="25" height="25" viewBox="0 0 25 25" fill="none" xmlns="http://www.w3.org/2000/svg">
<path opacity="0.1" fill-rule="evenodd" clip-rule="evenodd" d="M0.5 12.4023C0.5 5.77493 5.87258 0.402344 12.5 0.402344C19.1274 0.402344 24.5 5.77493 24.5 12.4023C24.5 19.0298 19.1274 24.4023 12.5 24.4023C5.87258 24.4023 0.5 19.0298 0.5 12.4023Z" fill="white"/>
<path fill-rule="evenodd" clip-rule="evenodd" d="M12.5006 6.00244C10.7624 6.00244 10.5443 6.01004 9.86161 6.04111C9.18027 6.07231 8.7152 6.18018 8.30827 6.33844C7.88733 6.50191 7.53026 6.72058 7.17452 7.07645C6.81852 7.43219 6.59985 7.78926 6.43585 8.21006C6.27718 8.61714 6.16918 9.08234 6.13851 9.76341C6.10798 10.4461 6.09998 10.6644 6.09998 12.4025C6.09998 14.1407 6.10771 14.3581 6.13864 15.0408C6.16998 15.7221 6.27784 16.1872 6.43598 16.5942C6.59958 17.0151 6.81825 17.3722 7.17412 17.7279C7.52972 18.0839 7.88679 18.3031 8.30747 18.4666C8.71467 18.6248 9.17987 18.7327 9.86108 18.7639C10.5438 18.795 10.7618 18.8026 12.4998 18.8026C14.2381 18.8026 14.4555 18.795 15.1382 18.7639C15.8195 18.7327 16.2851 18.6248 16.6924 18.4666C17.1132 18.3031 17.4697 18.0839 17.8253 17.7279C18.1813 17.3722 18.4 17.0151 18.564 16.5943C18.7213 16.1872 18.8293 15.722 18.8613 15.0409C18.892 14.3583 18.9 14.1407 18.9 12.4025C18.9 10.6644 18.892 10.4462 18.8613 9.76355C18.8293 9.08221 18.7213 8.61714 18.564 8.2102C18.4 7.78926 18.1813 7.43219 17.8253 7.07645C17.4693 6.72045 17.1133 6.50178 16.692 6.33844C16.2839 6.18018 15.8186 6.07231 15.1373 6.04111C14.4546 6.01004 14.2373 6.00244 12.4986 6.00244H12.5006ZM11.9264 7.15577C12.0968 7.1555 12.2869 7.15577 12.5005 7.15577C14.2094 7.15577 14.4119 7.1619 15.0867 7.19257C15.7107 7.2211 16.0494 7.32537 16.275 7.41297C16.5737 7.52897 16.7866 7.66764 17.0105 7.89164C17.2345 8.11565 17.3731 8.32898 17.4894 8.62765C17.577 8.85299 17.6814 9.19166 17.7098 9.81566C17.7405 10.4903 17.7471 10.693 17.7471 12.401C17.7471 14.109 17.7405 14.3117 17.7098 14.9864C17.6813 15.6104 17.577 15.9491 17.4894 16.1744C17.3734 16.4731 17.2345 16.6857 17.0105 16.9096C16.7865 17.1336 16.5738 17.2723 16.275 17.3883C16.0497 17.4763 15.7107 17.5803 15.0867 17.6088C14.412 17.6395 14.2094 17.6461 12.5005 17.6461C10.7916 17.6461 10.5891 17.6395 9.91439 17.6088C9.29038 17.58 8.95171 17.4757 8.72598 17.3881C8.42731 17.2721 8.21397 17.1335 7.98997 16.9095C7.76597 16.6855 7.6273 16.4727 7.51103 16.1739C7.42343 15.9485 7.31903 15.6099 7.29063 14.9859C7.25996 14.3112 7.25383 14.1085 7.25383 12.3994C7.25383 10.6903 7.25996 10.4887 7.29063 9.81406C7.31916 9.19006 7.42343 8.85139 7.51103 8.62578C7.62703 8.32711 7.76597 8.11378 7.98997 7.88978C8.21397 7.66577 8.42731 7.52711 8.72598 7.41084C8.95158 7.32284 9.29038 7.21884 9.91439 7.19017C10.5048 7.1635 10.7336 7.1555 11.9264 7.15417V7.15577ZM15.9169 8.21845C15.4928 8.21845 15.1488 8.56205 15.1488 8.98619C15.1488 9.41019 15.4928 9.7542 15.9169 9.7542C16.3409 9.7542 16.6849 9.41019 16.6849 8.98619C16.6849 8.56219 16.3409 8.21845 15.9169 8.21845ZM12.5006 9.11579C10.6855 9.11579 9.21389 10.5874 9.21389 12.4025C9.21389 14.2176 10.6855 15.6885 12.5006 15.6885C14.3157 15.6885 15.7868 14.2176 15.7868 12.4025C15.7868 10.5874 14.3157 9.11579 12.5006 9.11579ZM12.5006 10.2691C13.6787 10.2691 14.6339 11.2242 14.6339 12.4025C14.6339 13.5806 13.6787 14.5358 12.5006 14.5358C11.3223 14.5358 10.3672 13.5806 10.3672 12.4025C10.3672 11.2242 11.3223 10.2691 12.5006 10.2691Z" fill="white"/>
</svg>
