<svg width="25" height="25" viewBox="0 0 25 25" fill="none" xmlns="http://www.w3.org/2000/svg">
<path opacity="0.1" fill-rule="evenodd" clip-rule="evenodd" d="M0.5 12.4023C0.5 5.77493 5.87258 0.402344 12.5 0.402344C19.1274 0.402344 24.5 5.77493 24.5 12.4023C24.5 19.0298 19.1274 24.4023 12.5 24.4023C5.87258 24.4023 0.5 19.0298 0.5 12.4023Z" fill="white"/>
<path fill-rule="evenodd" clip-rule="evenodd" d="M18.9 12.3936C18.9 12.8264 18.8559 13.2586 18.7694 13.6799C18.685 14.0912 18.56 14.495 18.3962 14.881C18.2362 15.2602 18.0378 15.6256 17.8059 15.9664C17.5774 16.305 17.3143 16.6227 17.0252 16.9123C16.7355 17.2006 16.4167 17.4631 16.0783 17.6925C15.7364 17.9227 15.3705 18.1209 14.9911 18.2816C14.6045 18.4445 14.1997 18.5694 13.7888 18.6536C13.3669 18.7404 12.9331 18.7847 12.4997 18.7847C12.0659 18.7847 11.6321 18.7404 11.2109 18.6536C10.7993 18.5694 10.3946 18.4445 10.0083 18.2816C9.62893 18.1209 9.26264 17.9227 8.92076 17.6925C8.5823 17.4631 8.26354 17.2006 7.97446 16.9123C7.68508 16.6227 7.42193 16.305 7.19317 15.9664C6.96253 15.6256 6.76376 15.2602 6.60313 14.881C6.43936 14.495 6.31405 14.0912 6.22936 13.6799C6.14374 13.2586 6.09998 12.8264 6.09998 12.3936C6.09998 11.9604 6.14371 11.5273 6.22939 11.1069C6.31408 10.6956 6.43938 10.2912 6.60316 9.90577C6.76378 9.5263 6.96256 9.16057 7.19319 8.81978C7.42195 8.48089 7.68511 8.16381 7.97449 7.8739C8.26357 7.58553 8.58233 7.32374 8.92078 7.09468C9.26267 6.86343 9.62895 6.66529 10.0083 6.50425C10.3946 6.34101 10.7993 6.21589 11.2109 6.13226C11.6322 6.04614 12.0659 6.00244 12.4997 6.00244C12.9332 6.00244 13.3669 6.04614 13.7888 6.13226C14.1998 6.21591 14.6045 6.34103 14.9911 6.50425C15.3705 6.66527 15.7364 6.86343 16.0783 7.09468C16.4168 7.32374 16.7356 7.58553 17.0252 7.8739C17.3143 8.16381 17.5775 8.48089 17.8059 8.81978C18.0378 9.16057 18.2362 9.52633 18.3962 9.90577C18.56 10.2912 18.685 10.6956 18.7694 11.1069C18.8559 11.5273 18.9 11.9604 18.9 12.3936ZM10.1677 7.45698C8.64351 8.17568 7.50595 9.5781 7.15124 11.2682C7.29533 11.2695 9.57295 11.2982 12.1971 10.602C11.2512 8.92368 10.2405 7.55406 10.1677 7.45698ZM12.65 11.4424C9.83577 12.2837 7.1353 12.2232 7.03844 12.2194C7.03686 12.2781 7.03405 12.3349 7.03405 12.3936C7.03405 13.7957 7.56376 15.0739 8.43444 16.0404C8.43256 16.0375 9.92828 13.3878 12.8778 12.4354C12.949 12.4117 13.0216 12.3904 13.0934 12.3698C12.9563 12.0597 12.8065 11.7488 12.65 11.4424ZM16.1092 8.29738C15.147 7.4501 13.8835 6.93616 12.4997 6.93616C12.0556 6.93616 11.6246 6.98984 11.2118 7.08907C11.2937 7.19894 12.3203 8.5589 13.255 10.2727C15.3173 9.50071 16.0958 8.31734 16.1092 8.29738ZM13.466 13.2742C13.4538 13.2782 13.4416 13.2817 13.4297 13.2861C10.2049 14.4087 9.15184 16.671 9.14045 16.6957C10.0683 17.4162 11.2321 17.851 12.4997 17.851C13.2566 17.851 13.9776 17.6971 14.6335 17.4184C14.5526 16.9416 14.2351 15.2702 13.466 13.2742ZM15.5539 16.9198C16.7811 16.0928 17.6527 14.7796 17.8959 13.2586C17.7834 13.2224 16.2542 12.739 14.4901 13.0214C15.207 14.9887 15.4983 16.5909 15.5539 16.9198ZM13.6757 11.086C13.8026 11.3463 13.9254 11.6112 14.0388 11.8774C14.0792 11.9729 14.1185 12.0665 14.157 12.1601C16.0346 11.9242 17.8843 12.3211 17.9634 12.3374C17.9509 11.0436 17.4874 9.85613 16.7206 8.92651C16.7102 8.94114 15.8336 10.206 13.6757 11.086Z" fill="white"/>
</svg>
