<svg width="25" height="25" viewBox="0 0 25 25" fill="none" xmlns="http://www.w3.org/2000/svg">
<path opacity="0.1" fill-rule="evenodd" clip-rule="evenodd" d="M0.5 12.4023C0.5 5.77493 5.87258 0.402344 12.5 0.402344C19.1274 0.402344 24.5 5.77493 24.5 12.4023C24.5 19.0298 19.1274 24.4023 12.5 24.4023C5.87258 24.4023 0.5 19.0298 0.5 12.4023Z" fill="white"/>
<path fill-rule="evenodd" clip-rule="evenodd" d="M12.1406 10.1563L12.1658 10.5715L11.7461 10.5207C10.2184 10.3258 8.88383 9.6648 7.75067 8.5547L7.19668 8.00389L7.05399 8.41064C6.75181 9.31736 6.94487 10.2749 7.5744 10.919C7.91015 11.2749 7.83461 11.3257 7.25544 11.1139C7.05399 11.0461 6.87772 10.9952 6.86093 11.0206C6.80218 11.08 7.00363 11.8511 7.16311 12.1562C7.38134 12.5799 7.82621 12.9951 8.31305 13.2408L8.72434 13.4357L8.23751 13.4442C7.76746 13.4442 7.75067 13.4527 7.80103 13.6306C7.96891 14.1814 8.63201 14.7662 9.37066 15.0204L9.89108 15.1983L9.43781 15.4695C8.76631 15.8593 7.9773 16.0796 7.18829 16.0966C6.81057 16.1051 6.5 16.1389 6.5 16.1644C6.5 16.2491 7.52404 16.7237 8.11999 16.9101C9.90786 17.4609 12.0315 17.2236 13.6263 16.283C14.7595 15.6136 15.8926 14.2831 16.4214 12.9951C16.7068 12.3087 16.9922 11.0545 16.9922 10.4529C16.9922 10.0631 17.0174 10.0122 17.4874 9.54616C17.7644 9.27499 18.0246 8.9784 18.075 8.89366C18.1589 8.73265 18.1505 8.73265 17.7224 8.87671C17.009 9.13093 16.9083 9.09704 17.2608 8.71571C17.521 8.44454 17.8316 7.95304 17.8316 7.80899C17.8316 7.78356 17.7057 7.82593 17.563 7.9022C17.4119 7.98694 17.0761 8.11405 16.8243 8.19032L16.3711 8.33437L15.9598 8.05473C15.7331 7.9022 15.4142 7.73272 15.2463 7.68187C14.8182 7.56324 14.1635 7.58019 13.7774 7.71577C12.7282 8.0971 12.0651 9.08009 12.1406 10.1563Z" fill="white"/>
</svg>
