<svg width="25" height="25" viewBox="0 0 25 25" fill="none" xmlns="http://www.w3.org/2000/svg">
<path opacity="0.1" fill-rule="evenodd" clip-rule="evenodd" d="M0.5 12.4023C0.5 5.77493 5.87258 0.402344 12.5 0.402344C19.1274 0.402344 24.5 5.77493 24.5 12.4023C24.5 19.0298 19.1274 24.4023 12.5 24.4023C5.87258 24.4023 0.5 19.0298 0.5 12.4023Z" fill="white"/>
<path fill-rule="evenodd" clip-rule="evenodd" d="M17.5008 8.27711C18.0515 8.42824 18.4853 8.87355 18.6325 9.43905C18.9 10.464 18.9 12.6024 18.9 12.6024C18.9 12.6024 18.9 14.7408 18.6325 15.7658C18.4853 16.3313 18.0515 16.7766 17.5008 16.9279C16.5027 17.2024 12.5 17.2024 12.5 17.2024C12.5 17.2024 8.49728 17.2024 7.4991 16.9279C6.94834 16.7766 6.51459 16.3313 6.36739 15.7658C6.09998 14.7408 6.09998 12.6024 6.09998 12.6024C6.09998 12.6024 6.09998 10.464 6.36739 9.43905C6.51459 8.87355 6.94834 8.42824 7.4991 8.27711C8.49728 8.00244 12.5 8.00244 12.5 8.00244C12.5 8.00244 16.5027 8.00244 17.5008 8.27711ZM11.3 10.8024V14.8024L14.5 12.8025L11.3 10.8024Z" fill="white"/>
</svg>
